<?xml version="1.0" standalone="no"?>
<!DOCTYPE svg PUBLIC "-//W3C//DTD SVG 20010904//EN"
 "http://www.w3.org/TR/2001/REC-SVG-20010904/DTD/svg10.dtd">
<svg version="1.0" xmlns="http://www.w3.org/2000/svg"
 width="225.000000pt" height="225.000000pt" viewBox="0 0 225.000000 225.000000"
 preserveAspectRatio="xMidYMid meet">
<metadata>
Created by potrace 1.14, written by Peter Selinger 2001-2017
</metadata>
<g transform="translate(0.000000,225.000000) scale(0.100000,-0.100000)"
fill="#000000" stroke="none">
<path d="M0 1125 l0 -1125 1125 0 1125 0 0 1125 0 1125 -1125 0 -1125 0 0
-1125z m1470 473 c0 -13 -32 -6 -37 9 -3 7 3 9 16 6 12 -3 21 -10 21 -15z
m-27 -26 l32 -11 -37 6 c-35 5 -38 3 -39 -18 -1 -17 -3 -19 -6 -6 -2 9 -11 17
-20 17 -9 0 -13 -6 -10 -15 5 -11 -1 -10 -26 4 -18 10 -39 21 -47 24 -8 4 0 4
19 1 23 -4 36 -2 42 7 6 10 9 11 9 2 0 -7 9 -13 20 -13 14 0 20 7 21 23 1 14
3 16 6 6 2 -9 18 -21 36 -27z m-415 -17 c34 -8 81 -24 103 -36 23 -11 47 -18
55 -15 8 3 13 0 11 -7 -1 -7 9 -11 28 -10 17 1 22 -1 12 -4 -18 -5 -18 -6 -1
-24 24 -26 33 -24 31 9 -2 17 -10 31 -25 37 -30 13 -28 20 7 21 29 1 30 1 27
-53 -1 -43 1 -51 10 -39 6 9 15 16 19 16 4 0 2 -7 -5 -15 -10 -12 -9 -20 6
-41 11 -15 27 -38 37 -53 l17 -26 -2 25 c-3 23 1 25 40 28 l42 3 0 -50 c0 -45
-2 -50 -22 -48 -13 0 -26 6 -30 11 -15 22 -15 -1 -1 -36 l14 -36 112 -4 c62
-2 126 -10 142 -17 17 -7 30 -11 31 -9 0 2 26 -25 56 -60 72 -81 92 -136 86
-241 -6 -94 -29 -142 -99 -205 -85 -76 -96 -78 -546 -74 -375 3 -390 4 -444
26 -175 70 -293 215 -320 391 -21 138 26 281 125 388 68 73 142 118 236 142
91 24 164 26 248 6z m277 -10 c22 -8 31 -14 20 -14 -21 0 -88 27 -70 28 6 0
28 -6 50 -14z m310 -1 c31 -20 32 -40 3 -55 l-22 -12 18 28 c17 25 17 27 2 22
-10 -4 -14 -3 -11 2 3 6 -3 14 -12 20 -10 6 -14 11 -10 11 4 0 19 -7 32 -16z
m-65 -10 c0 -2 -7 -4 -15 -4 -8 0 -15 4 -15 10 0 5 7 7 15 4 8 -4 15 -8 15
-10z m114 -76 c16 -11 -6 -10 -23 1 -8 5 -10 14 -5 22 6 10 9 10 12 -1 3 -8
10 -18 16 -22z m-310 -60 c4 -16 1 -30 -6 -34 -7 -4 -8 -3 -4 4 4 7 2 12 -4
12 -7 0 -9 8 -5 20 4 12 1 29 -6 38 -12 15 -11 15 3 2 8 -8 18 -27 22 -42z
m-34 12 c0 -5 -2 -10 -4 -10 -3 0 -8 5 -11 10 -3 6 -1 10 4 10 6 0 11 -4 11
-10z m380 -12 c0 -19 -2 -20 -10 -8 -13 19 -13 30 0 30 6 0 10 -10 10 -22z
m18 -35 c-6 -7 -8 -45 -7 -85 4 -67 2 -73 -15 -70 -12 2 -16 -1 -10 -9 4 -7 3
-10 -4 -6 -5 4 -8 16 -5 27 5 19 6 20 20 3 13 -16 14 -14 9 21 -3 22 -10 43
-17 46 -7 5 -7 10 -1 14 5 3 13 29 17 58 5 40 9 48 15 33 4 -11 3 -26 -2 -32z
m-31 -25 c-3 -7 -5 -2 -5 12 0 14 2 19 5 13 2 -7 2 -19 0 -25z m-107 -63 c-32
-18 -44 -19 -29 -2 7 7 22 14 33 14 19 2 18 0 -4 -12z m-149 -48 c-16 -16 -25
-1 -10 16 8 8 16 11 18 5 2 -5 -2 -15 -8 -21z"/>
</g>
</svg>
